# xmcd
#
# Track frame offsets: 
#        150
#        8732
#        32653
#        49979
#        58700
#        78947
#        114151
#        130024
#        144737
#        151073
#        197066
#        208138
#        227688
#        245862
#        267157
#
# Disc length: 3799 seconds
#
# Revision: 0
# Processed by: cddbd v1.5.2PL0 Copyright (c) Steve Scherf et al.
# Submitted via: ExactAudioCopy v0.95b3
#
DISCID=ca0ed50f
DTITLE=Jimi Hendrix  - Studio Sessions Vol.1 (Voodoo Chile Records  Bo
DTITLE=x-Set) - Disc 1
DYEAR=1900
DGENRE=
TTITLE0=Exp
TTITLE1=Bold As Love
TTITLE2=Hear My Train A' Comin
TTITLE3=Dance
TTITLE4=Long Hot Summer Night
TTITLE5=1983
TTITLE6=Angel
TTITLE7=Cherokee Mist
TTITLE8=Hear My Train A' Comin
TTITLE9=Voodoo Chile
TTITLE10=Cherokee Mist
TTITLE11=Gypsy Eyes
TTITLE12=All Along The Watchtower
TTITLE13=Have You Ever Been(To Electric Ladyland)
TTITLE14=Dance Jam
EXTD=
EXTT0=
EXTT1=
EXTT2=
EXTT3=
EXTT4=
EXTT5=
EXTT6=
EXTT7=
EXTT8=
EXTT9=
EXTT10=
EXTT11=
EXTT12=
EXTT13=
EXTT14=
PLAYORDER=
